<svg id="SvgjsSvg1001" width="288" height="288" xmlns="http://www.w3.org/2000/svg" version="1.1" xmlns:xlink="http://www.w3.org/1999/xlink" xmlns:svgjs="http://svgjs.com/svgjs"><defs id="SvgjsDefs1002"></defs><g id="SvgjsG1008" transform="matrix(1,0,0,1,0,0)"><svg xmlns="http://www.w3.org/2000/svg" width="288" height="288" fill="red" viewBox="0 0 204 92"><path fill="#17202c" d="M15.8438 24.9616L11.1286 22.8154 10.4765 24.2658C10.2842 24.6934 9.86624 24.9616 9.40224 24.9826 9.14308 24.9952 8.88809 25.0203 8.6331 25.058 8.17329 25.1293 7.71348 24.9407 7.44177 24.5634L6.51797 23.2723 2.30023 26.2988 3.22404 27.5899C3.49575 27.9672 3.52083 28.466 3.30764 28.881 3.18642 29.1115 3.08191 29.3463 2.98995 29.5894 2.82275 30.0253 2.42982 30.3355 1.96582 30.3775L.385742 30.5326.895716 35.7011 2.47998 35.5418C2.94397 35.4957 3.38288 35.7262 3.63787 36.1202 3.70475 36.2292 3.77581 36.334 3.85106 36.4388 3.9263 36.5436 4.00154 36.6442 4.08096 36.7448 4.36939 37.1095 4.44881 37.6 4.25653 38.0233L3.59607 39.4821 8.31542 41.6283 8.97169 40.1779C9.16398 39.7504 9.58199 39.4821 10.046 39.4611 10.301 39.4485 10.5601 39.4234 10.8151 39.3857 11.2749 39.3144 11.7347 39.503 12.0065 39.8803L12.9303 41.1714 17.1438 38.1449 16.22 36.8538C15.9483 36.4765 15.9232 35.9777 16.1364 35.5627 16.2534 35.3322 16.3621 35.0974 16.4541 34.8585 16.6213 34.4226 17.0142 34.1124 17.4782 34.0663L19.0583 33.9112 18.5441 28.7427 16.9599 28.8977C16.4959 28.9439 16.0612 28.7133 15.8062 28.3193 15.7393 28.2103 15.6641 28.1055 15.5888 28.0007 15.5136 27.8959 15.4383 27.7953 15.3589 27.6947 15.0663 27.33 14.9911 26.8354 15.1833 26.412L15.8438 24.9616zM13.1685 29.7445C14.5312 31.656 14.0965 34.3094 12.1904 35.6801 10.2842 37.0466 7.63406 36.6107 6.26716 34.7034 4.90444 32.7919 5.33918 30.1301 7.24531 28.7636 9.15562 27.3929 11.8058 27.833 13.1685 29.7445zM195.571 66.1344L192.428 67.9536 192.984 68.9177C193.147 69.2028 193.13 69.5507 192.954 69.8232 192.854 69.9741 192.766 70.1333 192.683 70.2926 192.536 70.5819 192.239 70.7705 191.918 70.7705H190.806V74.409H191.918C192.244 74.409 192.536 74.5976 192.683 74.8869 192.766 75.0503 192.854 75.2055 192.954 75.3564 193.134 75.6288 193.147 75.9809 192.984 76.2618L192.428 77.2259 195.571 79.0452 196.127 78.0768C196.29 77.7918 196.599 77.6367 196.93 77.6535 197.017 77.6577 197.109 77.6619 197.197 77.6619 197.285 77.6619 197.377 77.6577 197.465 77.6535 197.791 77.6367 198.1 77.7918 198.263 78.0726L198.823 79.0452 201.967 77.2259 201.411 76.2576C201.248 75.9726 201.264 75.6246 201.444 75.3522 201.544 75.2013 201.632 75.0462 201.716 74.8827 201.862 74.5934 202.155 74.4048 202.481 74.4048H203.593V70.7663H202.481C202.155 70.7663 201.862 70.5777 201.716 70.2884 201.632 70.125 201.544 69.9699 201.444 69.819 201.264 69.5465 201.248 69.1944 201.411 68.9135L201.967 67.9452 198.823 66.126 198.267 67.0943C198.104 67.3793 197.795 67.5344 197.469 67.5177 197.381 67.5135 197.289 67.5093 197.201 67.5093 197.113 67.5093 197.021 67.5135 196.934 67.5177 196.608 67.5344 196.294 67.3793 196.131 67.0943L195.571 66.1344zM197.193 69.6136C198.836 69.6136 200.165 70.9466 200.165 72.5939 200.165 74.2413 198.836 75.5785 197.193 75.5785 195.55 75.5785 194.221 74.2413 194.221 72.5939 194.221 70.9466 195.554 69.6136 197.193 69.6136zM25.3878 9.47289L22.5035 11.682 23.1807 12.5665C23.3813 12.8263 23.4106 13.1743 23.2684 13.4719 23.189 13.6354 23.1221 13.803 23.0594 13.9749 22.9508 14.2809 22.6832 14.5073 22.3614 14.5492L21.2578 14.6917 21.726 18.3009 22.8295 18.1583C23.1514 18.1164 23.4691 18.2631 23.653 18.5356 23.7575 18.6865 23.8662 18.829 23.9832 18.9674 24.1964 19.2147 24.255 19.5584 24.1295 19.8644L23.7032 20.8914 27.0473 22.2873 27.4736 21.2561C27.599 20.9543 27.8875 20.7573 28.2135 20.7321 28.3013 20.7237 28.3891 20.7153 28.481 20.7028 28.5688 20.6902 28.6566 20.6776 28.7444 20.6608 29.0663 20.6022 29.3923 20.7153 29.5888 20.9752L30.2701 21.8681 33.1544 19.659 32.4772 18.7703C32.2808 18.5104 32.2515 18.1625 32.3936 17.8649 32.4731 17.7014 32.5399 17.5337 32.6026 17.3661 32.7113 17.0601 32.9788 16.8337 33.3007 16.7918L34.4043 16.6493 33.9361 13.0401 32.8325 13.1826C32.5107 13.2246 32.193 13.0779 32.0091 12.8096 31.9087 12.6587 31.7959 12.5161 31.6788 12.3778 31.4656 12.1305 31.4071 11.7868 31.5325 11.4808L31.9589 10.4496 28.6065 9.05371 28.1801 10.0849C28.0547 10.3867 27.7662 10.5795 27.4444 10.6089 27.3566 10.6173 27.2646 10.6256 27.1769 10.6382 27.0891 10.6508 27.0013 10.6634 26.9135 10.6801 26.5916 10.7388 26.2614 10.6256 26.0649 10.3657L25.3878 9.47289zM27.4444 12.7132C29.0704 12.4994 30.5627 13.6521 30.7759 15.2827 30.9891 16.9134 29.8396 18.414 28.2135 18.6236 26.5875 18.8374 25.091 17.6847 24.882 16.0498 24.6688 14.4192 25.8183 12.9269 27.4444 12.7132z" class="color0D3F90 svgShape"></path><path fill="#263238" d="M72.6643 12.9336C72.3137 13.2884 71.9136 13.5537 71.5003 13.7991 71.0836 14.0345 70.6537 14.2501 70.1709 14.3761 70.5214 14.0213 70.9216 13.756 71.3349 13.5106 71.7516 13.2785 72.1848 13.0629 72.6643 12.9336zM74.8623 15.0557C74.7367 15.5365 74.5217 15.9676 74.2869 16.3887 74.0422 16.8032 73.7777 17.2045 73.4238 17.556 73.5495 17.0752 73.7644 16.6441 73.9992 16.2229 74.2439 15.8084 74.5085 15.4072 74.8623 15.0557zM77.8226 15.7891C77.9515 16.2699 77.9813 16.7507 77.9879 17.2316 77.9846 17.7124 77.9548 18.1932 77.8226 18.6741 77.6903 18.1932 77.6605 17.7124 77.6572 17.2316 77.6638 16.7507 77.6936 16.2699 77.8226 15.7891zM80.752 14.9365C81.1058 15.288 81.3703 15.6893 81.615 16.1038 81.8498 16.5216 82.0648 16.9527 82.1904 17.4369 81.8366 17.0854 81.5721 16.6841 81.3273 16.2696 81.0959 15.8518 80.8809 15.4207 80.752 14.9365zM82.8691 12.7344C83.3486 12.8604 83.7785 13.0759 84.1985 13.3114 84.6118 13.5568 85.012 13.8221 85.3625 14.1769 84.883 14.0509 84.4531 13.8353 84.0331 13.5999 83.6198 13.3512 83.2164 13.0859 82.8691 12.7344z" class="color263238 svgShape"></path><path fill="#17202c" d="M165.823 91.9067H65.0703L79.6403 9.05371H180.393L165.823 91.9067Z" class="color0D3F90 svgShape"></path><path fill="#17202c" d="M114.121 0.47168H81.1485L79.6406 9.05376H114.928L114.121 0.47168Z" class="color0D3F90 svgShape"></path><g opacity=".1" fill="#000000" class="color000 svgShape"><path fill="#17202c" d="M165.823 91.9067H65.0703L79.6403 9.05371H180.393L165.823 91.9067Z" opacity=".1" class="color0D3F90 svgShape"></path><path fill="#17202c" d="M114.121 0.47168H81.1485L79.6406 9.05376H114.928L114.121 0.47168Z" opacity=".1" class="color0D3F90 svgShape"></path></g><path fill="#f8f8f8" stroke="#17202c" d="M158.016 52.0725L165.078 91.4068H65.1255L50.9698 12.5615H150.922L158.016 52.0725Z" class="colorF8F8F8 svgShape colorStroke0D3F90 svgStroke"></path><path fill="#17202c" d="M85.3585 60.8714C87.6761 60.8714 89.5549 58.9873 89.5549 56.6632 89.5549 54.3391 87.6761 52.4551 85.3585 52.4551 83.0409 52.4551 81.1621 54.3391 81.1621 56.6632 81.1621 58.9873 83.0409 60.8714 85.3585 60.8714zM118.536 60.8714C120.854 60.8714 122.733 58.9873 122.733 56.6632 122.733 54.3391 120.854 52.4551 118.536 52.4551 116.219 52.4551 114.34 54.3391 114.34 56.6632 114.34 58.9873 116.219 60.8714 118.536 60.8714zM107.973 61.5417L107.742 61.1006C107.722 61.0608 105.553 57.0417 101.191 57.0417 97.213 57.0417 96.2441 60.8254 96.2044 60.9879L96.0853 61.4687 95.123 61.2366 95.2388 60.7524C95.2487 60.706 96.4193 56.0469 101.191 56.0469 106.165 56.0469 108.522 60.4507 108.622 60.6397L108.853 61.0807 107.973 61.5417z" class="color0D3F90 svgShape"></path></svg></g></svg>