
<svg width="533px" height="533px" viewBox="-2 -2 533 533" version="1.1" xmlns="http://www.w3.org/2000/svg" xmlns:xlink="http://www.w3.org/1999/xlink">
    <defs>
        <ellipse id="path-1" cx="264.510638" cy="264.5" rx="264.510638" ry="264.5"></ellipse>
    </defs>
    <g id="record" stroke="none" stroke-width="1" fill="none" fill-rule="evenodd">
        <g id="record-bg">
            <mask id="mask-2" fill="white">
                <use xlink:href="#path-1"></use>
            </mask>
            <use id="outer-circle" stroke="#503750" stroke-width="2.7" fill-opacity="0.25" fill="#503750" xlink:href="#path-1"></use>
            <g id="diagonal-hash" opacity="0.333022388" style="mix-blend-mode: darken;" mask="url(#mask-2)" fill="#503750">
                <g transform="translate(-8.097264, -4.498299)">
                    <polygon id="Fill-1" points="337.369284 542.494898 341.185795 542.494898 540.771667 342.917053 540.771667 339.100696"></polygon>
                    <polygon id="Fill-2" points="536.954706 541.649578 540.772117 541.649578 540.772117 537.832321"></polygon>
                    <polygon id="Fill-3" points="518.061359 542.494898 521.87787 542.494898 540.771487 523.602041 540.771487 519.785684"></polygon>
                    <polygon id="Fill-4" points="497.36799 542.494898 501.185401 542.494898 540.772027 502.909864 540.772027 499.093507"></polygon>
                    <polygon id="Fill-5" points="476.675431 542.494898 480.491942 542.494898 540.771577 482.217687 540.771577 478.40133"></polygon>
                    <polygon id="Fill-6" points="456.278422 542.494898 460.094933 542.494898 540.771577 461.821498 540.771577 458.005141"></polygon>
                    <polygon id="Fill-7" points="436.261984 542.494898 440.078495 542.494898 540.771577 441.804966 540.771577 437.989509"></polygon>
                    <polygon id="Fill-8" points="416.539477 542.494898 420.355988 542.494898 540.771307 422.084422 540.771307 418.268065"></polygon>
                    <polygon id="Fill-9" points="396.81616 542.494898 400.633571 542.494898 540.772027 402.362078 540.772027 398.545721"></polygon>
                    <polygon id="Fill-10" points="377.853177 542.494898 381.670587 542.494898 540.771937 383.399947 540.771937 379.58269"></polygon>
                    <polygon id="Fill-11" points="357.540379 542.494898 361.35689 542.494898 540.771577 363.087427 540.771577 359.27107"></polygon>
                    <polygon id="Fill-12" points="200.615395 541.649578 204.431905 541.649578 540.771577 205.323433 540.771577 201.507076"></polygon>
                    <polygon id="Fill-13" points="319.524533 541.649578 323.341943 541.649578 540.771487 324.227879 540.771487 320.411521"></polygon>
                    <polygon id="Fill-14" points="299.508095 541.649578 303.324605 541.649578 540.771487 304.211346 540.771487 300.395889"></polygon>
                    <polygon id="Fill-15" points="279.785588 541.649578 283.602098 541.649578 540.772117 284.490802 540.772117 280.673545"></polygon>
                    <polygon id="Fill-16" points="260.063081 541.649578 263.879591 541.649578 540.771847 264.768459 540.771847 260.951202"></polygon>
                    <polygon id="Fill-17" points="241.100097 541.649578 244.916608 541.649578 540.771757 245.806328 540.771757 241.989071"></polygon>
                    <polygon id="Fill-18" points="220.78649 541.649578 224.603001 541.649578 540.771487 225.493807 540.771487 221.67745"></polygon>
                    <polygon id="Fill-19" points="139.83004 541.649578 143.64745 541.649578 540.771487 144.540613 540.771487 140.724256"></polygon>
                    <polygon id="Fill-20" points="180.313933 541.649578 184.131343 541.649578 540.771757 185.023508 540.771757 181.207151"></polygon>
                    <polygon id="Fill-21" points="160.001945 541.649578 163.818456 541.649578 540.771307 164.710987 540.771307 160.89553"></polygon>
                    <polygon id="Fill-22" points="3.07696049 541.649578 6.89347112 541.649578 540.772207 7.79231395 540.772207 3.9759568"></polygon>
                    <polygon id="Fill-23" points="121.986098 541.649578 125.802609 541.649578 540.772117 126.69676 540.772117 122.880402"></polygon>
                    <polygon id="Fill-24" points="101.968851 541.649578 105.786261 541.649578 540.771307 106.681127 540.771307 102.86477"></polygon>
                    <polygon id="Fill-25" points="82.2463441 541.649578 86.0628547 541.649578 540.771937 86.959683 540.771937 83.1433259"></polygon>
                    <polygon id="Fill-26" points="62.5230274 541.649578 66.3404377 541.649578 540.771757 67.2382391 540.771757 63.4209823"></polygon>
                    <polygon id="Fill-27" points="43.5600438 541.649578 47.3774541 541.649578 540.771667 48.2752085 540.771667 44.4588514"></polygon>
                    <polygon id="Fill-28" points="23.2480559 541.649578 27.0645666 541.649578 540.772117 27.9626881 540.772117 24.146331"></polygon>
                    <polygon id="Fill-29" points="323.927915 1.79931973 0.899246201 324.814997 0.899246201 328.631354 327.744426 1.79931973"></polygon>
                    <polygon id="Fill-30" points="523.513697 1.79931973 0.900055927 524.391942 0.900055927 528.209199 527.330208 1.79931973"></polygon>
                    <polygon id="Fill-31" points="504.62008 1.79931973 0.900055927 505.499085 0.900055927 509.316342 508.436591 1.79931973"></polygon>
                    <polygon id="Fill-32" points="483.927071 1.79931973 0.900055927 484.806908 0.900055927 488.624165 487.743582 1.79931973"></polygon>
                    <polygon id="Fill-33" points="463.234062 1.79931973 0.900055927 464.114731 0.900055927 467.931988 467.050573 1.79931973"></polygon>
                    <polygon id="Fill-34" points="442.837143 1.79931973 0.899246201 443.719442 0.899246201 447.535799 446.653653 1.79931973"></polygon>
                    <polygon id="Fill-35" points="422.820615 1.79931973 0.900055927 423.70291 0.900055927 427.519267 426.637126 1.79931973"></polygon>
                    <polygon id="Fill-36" points="403.098108 1.79931973 0.899786018 403.981466 0.899786018 407.797823 406.914619 1.79931973"></polygon>
                    <polygon id="Fill-37" points="383.375151 1.79931973 0.899965957 384.260022 0.899965957 388.076379 387.191662 1.79931973"></polygon>
                    <polygon id="Fill-38" points="364.412078 1.79931973 0.899786018 365.296991 0.899786018 369.114248 368.228588 1.79931973"></polygon>
                    <polygon id="Fill-39" points="344.09901 1.79931973 0.900055927 344.984471 0.900055927 348.801728 347.915521 1.79931973"></polygon>
                    <polygon id="Fill-40" points="187.174116 1.79931973 0.899246201 188.066697 0.899246201 191.883054 190.990626 1.79931973"></polygon>
                    <polygon id="Fill-41" points="306.083343 1.79931973 0.899246201 306.971143 0.899246201 310.7875 309.899854 1.79931973"></polygon>
                    <polygon id="Fill-42" points="286.066816 1.79931973 0.900055927 286.954611 0.900055927 290.770968 289.883326 1.79931973"></polygon>
                    <polygon id="Fill-43" points="266.344309 1.79931973 0.899786018 267.233167 0.899786018 271.049524 270.160819 1.79931973"></polygon>
                    <polygon id="Fill-44" points="246.621442 1.79931973 0.900055927 247.511723 0.900055927 251.32808 250.437953 1.79931973"></polygon>
                    <polygon id="Fill-45" points="227.658368 1.79931973 0.899875988 228.548692 0.899875988 232.365949 231.474879 1.79931973"></polygon>
                    <polygon id="Fill-46" points="207.345211 1.79931973 0.900055927 208.236172 0.900055927 212.053429 211.161722 1.79931973"></polygon>
                    <polygon id="Fill-47" points="125.488975 0.899569898 0.000269908815 126.384128 0.000269908815 130.200485 129.306385 0.899569898"></polygon>
                    <polygon id="Fill-48" points="165.973678 0.899569898 0.000449848024 166.866123 0.000449848024 170.68248 169.790188 0.899569898"></polygon>
                    <polygon id="Fill-49" points="145.66088 0.899569898 8.99696049e-05 146.554502 8.99696049e-05 150.370859 149.477391 0.899569898"></polygon>
                    <polygon id="Fill-50" points="107.645033 0 0 107.640704 0 111.457961 111.462444 0"></polygon>
                    <polygon id="Fill-51" points="87.6285957 0 0 87.6250714 0 91.4414286 91.4451064 0"></polygon>
                    <polygon id="Fill-52" points="67.905279 0 -0.00017993921 67.9027279 -0.00017993921 71.719085 71.7226894 0"></polygon>
                    <polygon id="Fill-53" points="48.182772 0 -0.000449848024 48.181284 -0.000449848024 51.9967415 51.9992827 0"></polygon>
                    <polygon id="Fill-54" points="29.2197884 0 0.000359878419 29.2182534 0.000359878419 33.0346105 33.0362991 0"></polygon>
                    <polygon id="Fill-55" points="8.90699088 3.59827959 0 12.5049122 0 16.322169 12.7235015 3.59827959"></polygon>
                </g>
            </g>
        </g>
        <ellipse id="middle-circle" stroke="#503750" stroke-width="2.7" fill="#FFCDD2" cx="264.85201" cy="264.841358" rx="97.5085445" ry="97.5046228"></ellipse>
        <ellipse id="inner-circle" stroke="#503750" stroke-width="2.7" fill-opacity="0.25" fill="#1E3264" cx="264.641943" cy="264.631299" rx="8.22856915" ry="8.22823821"></ellipse>
        <g id="record-text" transform="translate(246.425532, 217.219388)" fill="#F037A5">
            <path d="M0.479174094,96.0638068 L5.33197409,96.0638068 L5.33197409,98.2670068 L7.30477409,98.2670068 L7.30477409,96.0638068 L8.98957409,96.0638068 L8.98957409,94.3214068 L7.30477409,94.3214068 L7.30477409,88.0574068 L4.78477409,88.0574068 L0.479174094,93.9326068 L0.479174094,96.0638068 Z M5.33197409,94.3214068 L2.25037409,94.3214068 L5.33197409,90.0878068 L5.33197409,94.3214068 Z M12.2295742,93.1694068 C12.2295742,94.4942068 12.4311742,95.7614068 13.1223742,96.7982068 C13.7991742,97.8062068 14.8647742,98.4830068 16.4055742,98.4830068 C17.9607742,98.4830068 19.0407742,97.8062068 19.7031742,96.7982068 C20.3799742,95.7614068 20.6103742,94.4942068 20.6103742,93.1694068 C20.6103742,91.8446068 20.3799742,90.5630068 19.7031742,89.5262068 C19.0407742,88.5182068 17.9607742,87.8414068 16.4055742,87.8414068 C14.8647742,87.8414068 13.7991742,88.5182068 13.1223742,89.5262068 C12.4311742,90.5630068 12.2295742,91.8446068 12.2295742,93.1694068 Z M14.2167742,93.1694068 C14.2167742,91.9742068 14.4039742,91.0238068 14.8503742,90.4046068 C15.1959742,89.9294068 15.6711742,89.6126068 16.4055742,89.6126068 C17.1543742,89.6126068 17.6295742,89.9294068 17.9751742,90.4046068 C18.4215742,91.0238068 18.6231742,91.9742068 18.6231742,93.1694068 C18.6231742,94.3646068 18.4215742,95.3150068 17.9751742,95.9342068 C17.6295742,96.4094068 17.1543742,96.7262068 16.4055742,96.7262068 C15.6711742,96.7262068 15.1959742,96.4094068 14.8503742,95.9342068 C14.4039742,95.3150068 14.2167742,94.3646068 14.2167742,93.1694068 Z M23.8647743,96.0638068 L28.7175743,96.0638068 L28.7175743,98.2670068 L30.6903743,98.2670068 L30.6903743,96.0638068 L32.3751743,96.0638068 L32.3751743,94.3214068 L30.6903743,94.3214068 L30.6903743,88.0574068 L28.1703743,88.0574068 L23.8647743,93.9326068 L23.8647743,96.0638068 Z M28.7175743,94.3214068 L25.6359743,94.3214068 L28.7175743,90.0878068 L28.7175743,94.3214068 Z" id="404" transform="translate(16.427174, 93.162207) scale(1, -1) translate(-16.427174, -93.162207) "></path>
            <path d="M0.479174094,8.7968 L5.33197409,8.7968 L5.33197409,11 L7.30477409,11 L7.30477409,8.7968 L8.98957409,8.7968 L8.98957409,7.0544 L7.30477409,7.0544 L7.30477409,0.7904 L4.78477409,0.7904 L0.479174094,6.6656 L0.479174094,8.7968 Z M5.33197409,7.0544 L2.25037409,7.0544 L5.33197409,2.8208 L5.33197409,7.0544 Z M12.2295742,5.9024 C12.2295742,7.2272 12.4311742,8.4944 13.1223742,9.5312 C13.7991742,10.5392 14.8647742,11.216 16.4055742,11.216 C17.9607742,11.216 19.0407742,10.5392 19.7031742,9.5312 C20.3799742,8.4944 20.6103742,7.2272 20.6103742,5.9024 C20.6103742,4.5776 20.3799742,3.296 19.7031742,2.2592 C19.0407742,1.2512 17.9607742,0.5744 16.4055742,0.5744 C14.8647742,0.5744 13.7991742,1.2512 13.1223742,2.2592 C12.4311742,3.296 12.2295742,4.5776 12.2295742,5.9024 Z M14.2167742,5.9024 C14.2167742,4.7072 14.4039742,3.7568 14.8503742,3.1376 C15.1959742,2.6624 15.6711742,2.3456 16.4055742,2.3456 C17.1543742,2.3456 17.6295742,2.6624 17.9751742,3.1376 C18.4215742,3.7568 18.6231742,4.7072 18.6231742,5.9024 C18.6231742,7.0976 18.4215742,8.048 17.9751742,8.6672 C17.6295742,9.1424 17.1543742,9.4592 16.4055742,9.4592 C15.6711742,9.4592 15.1959742,9.1424 14.8503742,8.6672 C14.4039742,8.048 14.2167742,7.0976 14.2167742,5.9024 Z M23.8647743,8.7968 L28.7175743,8.7968 L28.7175743,11 L30.6903743,11 L30.6903743,8.7968 L32.3751743,8.7968 L32.3751743,7.0544 L30.6903743,7.0544 L30.6903743,0.7904 L28.1703743,0.7904 L23.8647743,6.6656 L23.8647743,8.7968 Z M28.7175743,7.0544 L25.6359743,7.0544 L28.7175743,2.8208 L28.7175743,7.0544 Z" id="404"></path>
        </g>
    </g>
</svg>
